<svg width="29" height="28" viewBox="0 0 29 28" fill="" xmlns="http://www.w3.org/2000/svg">
<path d="M11.2 21.3638C11.7933 21.3638 12.3734 21.5397 12.8667 21.8694C13.3601 22.199 13.7446 22.6675 13.9716 23.2157C14.1987 23.7639 14.2581 24.3671 14.1424 24.949C14.0266 25.531 13.7409 26.0655 13.3213 26.4851C12.9018 26.9046 12.3672 27.1904 11.7853 27.3061C11.2033 27.4219 10.6001 27.3625 10.0519 27.1354C9.50377 26.9083 9.03523 26.5238 8.70559 26.0305C8.37594 25.5371 8.2 24.9571 8.2 24.3638C8.2 23.5681 8.51607 22.8051 9.07868 22.2424C9.64129 21.6798 10.4043 21.3638 11.2 21.3638V21.3638Z" fill="white"/>
<path d="M22.5 21.3638C23.0933 21.3638 23.6734 21.5397 24.1667 21.8694C24.6601 22.199 25.0446 22.6675 25.2716 23.2157C25.4987 23.7639 25.5581 24.3671 25.4424 24.949C25.3266 25.531 25.0409 26.0655 24.6213 26.4851C24.2018 26.9046 23.6672 27.1904 23.0853 27.3061C22.5033 27.4219 21.9001 27.3625 21.3519 27.1354C20.8038 26.9083 20.3352 26.5238 20.0056 26.0305C19.6759 25.5371 19.5 24.9571 19.5 24.3638C19.5 23.5681 19.8161 22.8051 20.3787 22.2424C20.9413 21.6798 21.7044 21.3638 22.5 21.3638Z" fill="white"/>
<path d="M22.953 18.364H11.875C11.0292 18.398 10.1971 18.1427 9.51593 17.6403C8.83475 17.1378 8.34518 16.4181 8.128 15.6L6.234 7.349C6.224 7.31167 6.21533 7.27333 6.208 7.234L5.351 3.5H2C1.60218 3.5 1.22064 3.34196 0.93934 3.06066C0.658035 2.77936 0.5 2.39782 0.5 2C0.5 1.60218 0.658035 1.22064 0.93934 0.93934C1.22064 0.658035 1.60218 0.5 2 0.5L6.545 0.5C6.88444 0.499974 7.21386 0.61508 7.47942 0.826507C7.74497 1.03794 7.93096 1.33318 8.007 1.664L8.877 5.454H27C27.2241 5.45407 27.4454 5.50436 27.6475 5.60117C27.8496 5.69798 28.0275 5.83886 28.168 6.01344C28.3085 6.18802 28.4082 6.39187 28.4596 6.61002C28.511 6.82816 28.5128 7.05504 28.465 7.274L26.647 15.588V15.601C26.4323 16.4102 25.9507 17.1232 25.2803 17.6247C24.6099 18.1261 23.7899 18.3866 22.953 18.364ZM11.864 15.364H22.953C23.1086 15.3785 23.265 15.3458 23.4017 15.2699C23.5384 15.1941 23.649 15.0787 23.719 14.939L25.137 8.455H9.566L11.053 14.933C11.1236 15.0771 11.237 15.1959 11.3777 15.2731C11.5184 15.3502 11.6795 15.382 11.839 15.364H11.864Z" fill="white"/>
</svg>
