<svg width="23" height="18" viewBox="0 0 23 18" fill="" xmlns="http://www.w3.org/2000/svg">
<path d="M20.25 0H2.25C1.65493 0.00211812 1.08499 0.240201 0.66524 0.662015C0.245489 1.08383 0.0102017 1.65492 0.0109999 2.25L0 15.75C0.00184615 16.3462 0.239492 16.9174 0.661049 17.339C1.08261 17.7605 1.65383 17.9982 2.25 18H20.25C20.8462 17.9982 21.4174 17.7605 21.839 17.339C22.2605 16.9174 22.4982 16.3462 22.5 15.75V2.25C22.4982 1.65383 22.2605 1.08261 21.839 0.661049C21.4174 0.239492 20.8462 0.00184615 20.25 0ZM20.25 15.75H2.25V4.5L11.25 10.125L20.25 4.5V15.75ZM11.25 7.875L2.25 2.25H20.25L11.25 7.875Z" fill="white"/>
</svg>
