<svg width="22" height="22" viewBox="0 0 22 22" fill="" xmlns="http://www.w3.org/2000/svg">
<path d="M11 0.000976562C8.82441 0.000976562 6.69767 0.646115 4.88873 1.85481C3.07979 3.06351 1.66989 4.78147 0.83733 6.79146C0.00476617 8.80145 -0.213071 11.0132 0.211367 13.147C0.635804 15.2808 1.68345 17.2408 3.22183 18.7792C4.76021 20.3175 6.72022 21.3652 8.85401 21.7896C10.9878 22.2141 13.1995 21.9962 15.2095 21.1637C17.2195 20.3311 18.9375 18.9212 20.1462 17.1122C21.3549 15.3033 22 13.1766 22 11.001C22 8.0836 20.8411 5.2857 18.7782 3.2228C16.7153 1.1599 13.9174 0.000976563 11 0.000976562ZM14.65 15.862L14.15 16.362C14.0186 16.4935 13.9241 16.6574 13.876 16.837C13.809 17.088 13.755 17.337 13.664 17.585L12.893 19.663C12.2713 19.8001 11.6366 19.8698 11 19.871V18.657C10.9731 17.7985 10.6147 16.9838 10 16.384C9.73458 16.1188 9.585 15.7592 9.584 15.384V13.964C9.58452 13.7107 9.51705 13.462 9.38864 13.2437C9.26024 13.0254 9.0756 12.8456 8.854 12.723C8.217 12.37 7.31 11.878 6.689 11.565C6.18146 11.3071 5.71063 10.9825 5.289 10.6L5.254 10.568C4.95146 10.2945 4.68286 9.98558 4.454 9.64798C4.029 9.03798 3.35101 8.02998 2.91101 7.37698C3.82131 5.35343 5.45321 3.74186 7.488 2.85698L8.55301 3.38998C8.66123 3.44398 8.78146 3.46944 8.90228 3.46394C9.0231 3.45844 9.14052 3.42217 9.24339 3.35856C9.34627 3.29495 9.43118 3.20612 9.49009 3.10049C9.549 2.99486 9.57995 2.87593 9.58 2.75498V2.25498C9.93814 2.1972 10.2995 2.16147 10.662 2.14798L11.917 3.40298C12.0489 3.53596 12.1229 3.71567 12.1229 3.90298C12.1229 4.09028 12.0489 4.27 11.917 4.40298L11.709 4.61098L11.25 5.06998C11.1841 5.13647 11.147 5.22632 11.147 5.31998C11.147 5.41363 11.1841 5.50349 11.25 5.56998L11.458 5.77798C11.524 5.84447 11.561 5.93432 11.561 6.02798C11.561 6.12163 11.524 6.21149 11.458 6.27798L11.1 6.63798C11.0328 6.70309 10.9426 6.73903 10.849 6.73798H10.449C10.3565 6.73771 10.2675 6.77359 10.201 6.83798L9.761 7.26598C9.70704 7.3185 9.67118 7.38681 9.6586 7.46105C9.64602 7.53529 9.65736 7.61161 9.691 7.67898L10.382 9.06198C10.4091 9.11607 10.4219 9.17619 10.4193 9.23663C10.4166 9.29707 10.3985 9.35583 10.3668 9.40733C10.335 9.45882 10.2906 9.50135 10.2378 9.53086C10.185 9.56038 10.1255 9.57591 10.065 9.57598H9.815C9.72972 9.57587 9.64733 9.54498 9.583 9.48898L9.177 9.13798C9.0838 9.05717 8.97116 9.00204 8.85016 8.97801C8.72917 8.95399 8.60401 8.9619 8.48701 9.00098L7.1 9.45998C7.00052 9.49355 6.91324 9.55591 6.84925 9.63915C6.78526 9.7224 6.74744 9.82278 6.74058 9.92755C6.73373 10.0323 6.75815 10.1368 6.81074 10.2276C6.86334 10.3185 6.94174 10.3917 7.036 10.438L7.527 10.684C7.94418 10.8931 8.40437 11.0019 8.87101 11.002C9.33801 11.002 9.87101 12.212 10.29 12.421H13.251C13.6262 12.4221 13.9857 12.5716 14.251 12.837L14.858 13.444C14.9843 13.5693 15.0847 13.7184 15.1534 13.8826C15.222 14.0468 15.2576 14.223 15.258 14.401C15.2579 14.6729 15.204 14.9422 15.0995 15.1933C14.995 15.4443 14.8419 15.6723 14.649 15.864L14.65 15.862ZM18.5 11.81C18.243 11.7459 18.0191 11.5883 17.872 11.368L17.072 10.168C16.9552 9.99318 16.8929 9.78769 16.8929 9.57748C16.8929 9.36726 16.9552 9.16177 17.072 8.98698L17.941 7.68698C18.0439 7.53298 18.1852 7.40854 18.351 7.32598L18.927 7.03798C19.7323 8.60878 20.0343 10.3895 19.792 12.138L18.5 11.81Z" fill="white"/>
</svg>
