<svg xmlns="http://www.w3.org/2000/svg" width="28.617" height="20" viewBox="0 0 28.617 20">
  <path id="Icon_simple-youtube" data-name="Icon simple-youtube" d="M28.027,8.512a3.587,3.587,0,0,0-2.491-2.491c-2.231-.6-11.208-.6-11.208-.6s-8.954-.012-11.208.6A3.587,3.587,0,0,0,.63,8.512a37.272,37.272,0,0,0-.623,6.924,37.272,37.272,0,0,0,.623,6.9,3.587,3.587,0,0,0,2.491,2.491c2.228.6,11.208.6,11.208.6s8.953,0,11.208-.6a3.587,3.587,0,0,0,2.491-2.491,37.272,37.272,0,0,0,.6-6.9,37.272,37.272,0,0,0-.6-6.924ZM11.463,19.72V11.14l7.472,4.3Z" transform="translate(-0.007 -5.424)" fill="#fff"/>
</svg>
